<svg width="24" height="24" viewBox="0 0 24 24" fill="none" xmlns="http://www.w3.org/2000/svg">
<path d="M5.0635 21.4485C4.836 21.4485 4.63733 21.3621 4.4675 21.1893C4.2975 21.0166 4.2125 20.8161 4.2125 20.5878V19.475H3.8875C3.08517 19.475 2.40333 19.1943 1.842 18.6328C1.28067 18.0714 1 17.3897 1 16.5875V10.4875C1 9.62817 1.25733 8.96708 1.772 8.50425C2.28667 8.04125 2.896 7.79583 3.6 7.768V5.7375C3.6 4.93267 3.855 4.27517 4.365 3.765C4.87517 3.255 5.53267 3 6.3375 3H17.9625C18.7673 3 19.4207 3.255 19.9225 3.765C20.4242 4.27517 20.675 4.93267 20.675 5.7375V7.768C21.379 7.79583 21.9883 8.04125 22.503 8.50425C23.0177 8.96708 23.275 9.62817 23.275 10.4875V16.5875C23.275 17.3897 22.9942 18.0714 22.4328 18.6328C21.8714 19.1943 21.1897 19.475 20.3875 19.475H20.0625V20.5878C20.0625 20.8161 19.9775 21.0166 19.8075 21.1893C19.6377 21.3621 19.4387 21.4485 19.2108 21.4485C18.9829 21.4485 18.7841 21.3621 18.6143 21.1893C18.4443 21.0166 18.3593 20.8161 18.3593 20.5878V19.475H5.92175V20.5895C5.92175 20.8182 5.83558 21.0185 5.66325 21.1905C5.49108 21.3625 5.29117 21.4485 5.0635 21.4485ZM3.8875 17.7718H20.3875C20.7022 17.7718 20.9783 17.6524 21.2157 17.4137C21.4531 17.1751 21.5718 16.8997 21.5718 16.5875V10.4875C21.5718 10.1757 21.4776 9.92533 21.2893 9.7365C21.1009 9.54767 20.8503 9.45325 20.5373 9.45325C20.2241 9.45325 19.9735 9.54767 19.7855 9.7365C19.5973 9.92533 19.5033 10.1757 19.5033 10.4875V14.9532H4.77175V10.4875C4.77175 10.1757 4.67758 9.92533 4.48925 9.7365C4.30092 9.54767 4.05025 9.45325 3.73725 9.45325C3.42408 9.45325 3.1735 9.54767 2.9855 9.7365C2.79733 9.92533 2.70325 10.1757 2.70325 10.4875V16.5875C2.70325 16.8997 2.82258 17.1751 3.06125 17.4137C3.29992 17.6524 3.57533 17.7718 3.8875 17.7718ZM6.475 13.25H17.8V10.4875C17.8 9.9555 17.9214 9.50617 18.1643 9.1395C18.4073 8.773 18.6764 8.4805 18.9718 8.262V5.7375C18.9718 5.42283 18.8781 5.17175 18.6908 4.98425C18.5033 4.79692 18.2543 4.70325 17.944 4.70325H6.331C6.02317 4.70325 5.77492 4.79692 5.58625 4.98425C5.39758 5.17175 5.30325 5.42283 5.30325 5.7375V8.262C5.59858 8.4805 5.86775 8.773 6.11075 9.1395C6.35358 9.50617 6.475 9.9555 6.475 10.4875V13.25Z" fill="black"/>
</svg>
