<svg width="24" height="24" viewBox="0 0 24 24" fill="none" xmlns="http://www.w3.org/2000/svg">
<path d="M6.72983 7.9173L3.75257 10.8943C3.58657 11.0603 3.39466 11.1423 3.17682 11.1403C2.95882 11.1383 2.76682 11.0543 2.60082 10.8883C2.45166 10.7391 2.37391 10.5514 2.36757 10.3251C2.36124 10.0987 2.43266 9.90263 2.58182 9.7368L3.42207 8.87755L2.62482 8.0743C2.45482 7.9043 2.36982 7.70438 2.36982 7.47455C2.36982 7.24472 2.45482 7.0448 2.62482 6.8748L4.15907 5.34055L3.71182 4.8993C3.53782 4.7293 3.45082 4.52938 3.45082 4.29955C3.45082 4.06972 3.53582 3.8718 3.70582 3.7058C3.85899 3.54847 4.05374 3.46663 4.29007 3.4603C4.52624 3.45397 4.72932 3.52747 4.89932 3.6808L5.36557 4.13405L6.87483 2.6248C7.04483 2.4548 7.24474 2.3698 7.47457 2.3698C7.70441 2.3698 7.90632 2.4548 8.08033 2.6248L8.87757 3.42205L9.74283 2.5758C9.90866 2.42663 10.1016 2.35205 10.3216 2.35205C10.5416 2.35205 10.7325 2.43297 10.8943 2.5948C11.0603 2.7648 11.1433 2.9588 11.1433 3.1768C11.1433 3.39463 11.0603 3.58655 10.8943 3.75255L7.92307 6.7238L17.2758 16.0766L20.2471 13.1053C20.4131 12.9393 20.606 12.8563 20.8258 12.8563C21.0458 12.8563 21.2388 12.9393 21.4048 13.1053C21.554 13.2545 21.6317 13.4432 21.6381 13.6716C21.6444 13.8999 21.573 14.095 21.4238 14.2568L20.5776 15.1221L21.3748 15.9193C21.5448 16.0933 21.6298 16.2952 21.6298 16.5251C21.6298 16.7549 21.5448 16.9548 21.3748 17.1248L19.8156 18.6841L20.2688 19.1253C20.4388 19.2953 20.5238 19.4952 20.5238 19.7251C20.5238 19.9549 20.4388 20.1528 20.2688 20.3188C20.099 20.4888 19.9001 20.5738 19.6721 20.5738C19.4442 20.5738 19.2453 20.4868 19.0753 20.3128L18.6341 19.8656L17.1248 21.3748C16.9548 21.5448 16.7549 21.6298 16.5251 21.6298C16.2952 21.6298 16.0953 21.5448 15.9253 21.3748L15.1221 20.5776L14.2568 21.4238C14.091 21.573 13.8991 21.6466 13.6811 21.6446C13.4631 21.6426 13.2732 21.5606 13.1113 21.3988C12.9413 21.2328 12.8563 21.0408 12.8563 20.8228C12.8563 20.605 12.9413 20.4111 13.1113 20.2411L16.0823 17.2698L6.72983 7.9173Z" fill="black"/>
</svg>
