<svg width="21" height="18" viewBox="0 0 21 18" fill="none" xmlns="http://www.w3.org/2000/svg">
<path d="M17.4742 12.177C17.6471 12.0072 17.8505 11.9222 18.0845 11.9222C18.3185 11.9222 18.5218 12.0072 18.6945 12.177L20.2218 13.7292C20.3916 13.8999 20.4765 14.099 20.4765 14.3265C20.4765 14.554 20.3914 14.7537 20.2213 14.9257C20.0511 15.0976 19.8515 15.1835 19.6225 15.1835C19.3937 15.1835 19.1936 15.0966 19.0223 14.9227L17.476 13.3955C17.3022 13.2242 17.2153 13.0207 17.2153 12.7852C17.2153 12.5497 17.3016 12.347 17.4742 12.177ZM18.132 0.258C18.302 0.43 18.387 0.633416 18.387 0.86825C18.387 1.10308 18.302 1.30475 18.132 1.47325L16.6048 3.0065C16.4311 3.17633 16.2272 3.26125 15.9932 3.26125C15.7591 3.26125 15.5567 3.17583 15.3862 3.005C15.2124 2.83267 15.1255 2.62892 15.1255 2.39375C15.1255 2.15842 15.2124 1.9565 15.3862 1.788L16.9325 0.25475C17.1043 0.0849167 17.3047 0 17.5335 0C17.7625 0 17.962 0.0860002 18.132 0.258ZM2.33975 0.25775C2.51058 0.0859166 2.71358 0 2.94875 0C3.18408 0 3.38683 0.0849167 3.557 0.25475L5.09025 1.807C5.26008 1.97867 5.345 2.179 5.345 2.408C5.345 2.637 5.26075 2.8365 5.09225 3.0065C4.92358 3.17633 4.72433 3.26125 4.4945 3.26125C4.2645 3.26125 4.06525 3.17633 3.89675 3.0065L2.3385 1.47325C2.1685 1.30308 2.0835 1.10092 2.0835 0.86675C2.0835 0.63275 2.16892 0.42975 2.33975 0.25775ZM3.0005 12.1785C3.17033 12.3492 3.25525 12.5522 3.25525 12.7875C3.25525 13.0227 3.17033 13.2253 3.0005 13.3955L1.47325 14.9227C1.30192 15.0966 1.0985 15.1835 0.863 15.1835C0.6275 15.1835 0.42475 15.0989 0.25475 14.9297C0.0849167 14.7604 0 14.5612 0 14.332C0 14.1028 0.0849167 13.9019 0.25475 13.7292L1.807 12.177C1.97767 12.0072 2.17675 11.9222 2.40425 11.9222C2.63175 11.9222 2.8305 12.0077 3.0005 12.1785ZM6.5395 14.751L10.2363 12.531L13.939 14.7765L12.9487 10.5835L16.2135 7.739L11.9153 7.36275L10.2353 3.396L8.563 7.3375L4.263 7.72L7.53025 10.5602L6.5395 14.751ZM10.2353 14.5223L5.70475 17.2565C5.55158 17.3557 5.38908 17.3974 5.21725 17.3818C5.04558 17.3661 4.89425 17.3127 4.76325 17.2215C4.63242 17.1305 4.53392 17.0089 4.46775 16.8567C4.40158 16.7048 4.38908 16.5334 4.43025 16.3427L5.6255 11.1803L1.621 7.683C1.47183 7.55417 1.38175 7.40858 1.35075 7.24625C1.31975 7.08392 1.32292 6.92658 1.36025 6.77425C1.39758 6.62175 1.48358 6.49275 1.61825 6.38725C1.75275 6.28158 1.91533 6.22042 2.106 6.20375L7.39525 5.73825L9.4395 0.860249C9.51 0.686249 9.61983 0.556833 9.769 0.472C9.91817 0.387 10.0715 0.344499 10.229 0.344499C10.3865 0.344499 10.5415 0.387 10.694 0.472C10.8465 0.556833 10.9588 0.686249 11.031 0.860249L13.0798 5.74075L18.3705 6.20375C18.5572 6.22042 18.7177 6.28158 18.8522 6.38725C18.9869 6.49275 19.0729 6.62175 19.1103 6.77425C19.1476 6.92658 19.1518 7.084 19.1228 7.2465C19.0938 7.409 19.0046 7.5545 18.8552 7.683L14.851 11.1803L16.046 16.3487C16.0833 16.5354 16.0676 16.7042 15.9987 16.8552C15.9299 17.0062 15.8336 17.1321 15.7098 17.2327C15.5811 17.3223 15.4308 17.3734 15.259 17.3862C15.0873 17.3989 14.9249 17.3577 14.7718 17.2625L10.2353 14.5223Z" fill="black"/>
</svg>
