<svg width="30" height="30" viewBox="0 0 30 30" fill="none" xmlns="http://www.w3.org/2000/svg">
<g clip-path="url(#clip0_15203_8620)">
<path d="M29.6213 14.8107C29.6213 22.9905 22.9905 29.6213 14.8107 29.6213C14.5035 29.6213 14.1989 29.6123 13.8967 29.5935C12.6296 29.5167 11.4049 29.2798 10.2436 28.9031C9.80176 28.7605 9.36875 28.5967 8.94637 28.4147C3.68323 26.1435 0 20.9073 0 14.8107C0 6.63085 6.63085 0 14.8107 0C22.9905 0 29.6213 6.63085 29.6213 14.8107Z" fill="#33ADC1"/>
<path d="M13.8968 29.5935C12.1472 29.4871 10.48 29.0767 8.94645 28.4148C14.6819 20.6824 4.75293 13.3175 4.75293 13.3175L6.19996 12.9602L9.75889 12.082C9.75889 12.0818 20.4728 18.6173 13.8968 29.5935Z" fill="#EAE0D3"/>
<path d="M10.2436 28.9033C9.80183 28.7607 9.36883 28.5969 8.94645 28.415C14.6819 20.6826 4.75293 13.3177 4.75293 13.3177L6.19996 12.9604C6.5507 13.2228 7.04156 13.5643 7.54258 14.0328C10.1542 16.4722 13.9427 21.6632 10.2436 28.9033Z" fill="#D6C8B0"/>
<path d="M13.3327 8.24263C13.3327 11.4404 10.7405 14.0326 7.54251 14.0326C4.34471 14.0326 1.75257 11.4404 1.75257 8.24263C1.75257 7.76511 1.80998 7.30137 1.91936 6.85752C2.02806 6.4139 2.18829 5.99016 2.39259 5.59355L0 3.20096L3.92097 3.72504L1.90964 1.23143L6.50769 2.54445L6.00643 0C6.00643 0 10.0065 2.21247 11.9071 4.43782C12.0511 4.60279 12.1853 4.77636 12.3103 4.95715C12.9548 5.8905 13.3327 7.02205 13.3327 8.24263Z" fill="#EAE0D3"/>
<path d="M10.6543 7.06117C10.6543 7.84424 10.0195 8.47928 9.23646 8.47928C8.45317 8.47928 7.81836 7.84424 7.81836 7.06117C7.81836 6.27788 8.45317 5.64307 9.23646 5.64307C10.0195 5.64307 10.6543 6.27788 10.6543 7.06117Z" fill="#2F373B"/>
<path d="M23.9453 7.99671C23.3631 8.3009 22.7496 8.23197 22.2569 8.06858C21.6808 7.87829 21.2709 7.56032 21.2709 7.56032C21.2709 7.56032 19.1974 5.52481 20.7927 4.63869C21.2745 4.37157 21.6646 4.3727 21.9739 4.50558H21.9746C22.691 4.8127 22.9787 5.8204 22.9787 5.8204C22.9787 5.8204 23.5561 4.3232 24.8334 4.77654C26.1101 5.22921 25.207 7.33727 23.9453 7.99671Z" fill="#FF648D"/>
<path d="M22.2569 8.06858C21.6808 7.87829 21.2709 7.56032 21.2709 7.56032C21.2709 7.56032 19.1974 5.52481 20.7927 4.63869C21.2745 4.37157 21.6646 4.3727 21.9739 4.50558C21.2679 4.4658 21.2456 7.06766 22.2569 8.06858Z" fill="#EA2F69"/>
<path d="M10.2506 6.60798C10.2506 6.85273 10.0522 7.05116 9.80743 7.05116C9.56268 7.05116 9.36426 6.85273 9.36426 6.60798C9.36426 6.36346 9.56268 6.16504 9.80743 6.16504C10.0522 6.16504 10.2506 6.36346 10.2506 6.60798Z" fill="white"/>
<path d="M21.7898 8.68213C21.7898 10.8422 15.9106 17.4005 19.7511 20.1183C20.7112 20.7978 21.7708 21.0193 22.8206 20.9696C23.8701 21.0195 24.9298 20.7978 25.89 20.1183C29.7303 17.4005 23.8511 10.8422 23.8511 8.68213" fill="#FF648D"/>
<path d="M22.6617 20.9743C21.6637 20.996 20.6625 20.7635 19.7511 20.1183C15.9106 17.4005 21.79 10.8419 21.79 8.68213H22.4201C22.4201 10.8419 20.1355 17.4005 21.628 20.1183C21.9527 20.7095 22.3069 20.9544 22.6617 20.9743Z" fill="#EA2F69"/>
<path d="M22.6621 20.9745C22.7148 20.974 22.7674 20.972 22.8201 20.9697C22.7674 20.9763 22.7148 20.9781 22.6621 20.9745Z" fill="#EA2F69"/>
<path d="M22.9781 20.9745C22.9254 20.9781 22.873 20.9763 22.8203 20.9697C22.873 20.972 22.9254 20.974 22.9781 20.9745Z" fill="#EA2F69"/>
<path d="M26.6853 8.30165L12.0326 10.7238C12.0326 10.7238 11.5212 9.94823 11.335 8.91996C11.1693 8.00311 11.2624 6.88512 12.2098 5.93799L26.6853 8.30165Z" fill="#FFD62C"/>
<path d="M26.6853 8.30176L12.0326 10.7239C12.0326 10.7239 11.5212 9.94834 11.335 8.92007L26.6853 8.30176Z" fill="#FFB92E"/>
<path d="M7.54251 14.0326C4.34471 14.0326 1.75257 11.4404 1.75257 8.24264C1.75257 7.76512 1.80998 7.30138 1.91936 6.85753C2.02806 6.41391 2.18829 5.99017 2.39259 5.59356L0 3.20097L3.92097 3.72505L1.90964 1.23145L6.59718 3.87014C6.59718 3.87014 3.70199 4.93411 3.70199 8.30185C3.70199 11.6696 7.54251 14.0326 7.54251 14.0326Z" fill="#D6C8B0"/>
</g>
<defs>
<clipPath id="clip0_15203_8620">
<rect width="29.6213" height="29.6213" fill="white"/>
</clipPath>
</defs>
</svg>
